<svg xmlns="http://www.w3.org/2000/svg" id="cuteCat" x="0" y="0" version="1.1" viewBox="30 100 550 680">
  <style>
    .st0{fill:#dda4b4}.st1{fill:#3b2d2a}
  </style>
  <path id="path5209" d="M194.6 318.6c9.3-2.4 20.2-2.5 27.5 4.7 6.1 6.1 11.4 13.3 15 21.2 3.9 7.9-3.5 19-12.3 16.6-14.9-4.1-29.6-15.4-32-32 2.8-2.8 2.4-6.8 1.8-10.5z" class="st0"/>
  <path id="path5211" d="M296 355.3c6.4-3.1 12.1 2.8 15 8.1 2 3.2 1.8 7.6-1.2 10.2-6.5-4.1-14.5-9.3-13.8-18.3z" class="st0"/>
  <path id="path5213" d="M488.4 410.6c6.9-5.1 12-12.2 14.4-20.6-.5 12.5-6.3 24-14.7 32.9-14.1 15.3-30.8 28.2-49.5 36.9 1-6.4 2.5-12.7 4.8-18.7.1 2.6.2 5.1.4 7.7 17.8-8.7 29.8-25.4 44.6-38.2z" class="st0"/>
  <path id="path5215" d="M253.5 411.4c13.4-2.6 27.8 2.8 35.9 14.1.6 3.6-3.5 5.4-5.5 7.7-6.4 5.2-13.4 11.6-22.1 11-5.6-.2-12.6-1.5-14.6-7.9-1.4-7.3-.6-15.2 2.4-22 .6-1.9 2-2.9 3.9-2.9z" class="st0"/>
  <path id="path5217" d="M327.8 425.5c5.2-2.1 11-.2 15.7 2.5 10.9 6.5 17.6 18.9 19.6 31.4.7 5.3-.1 12.5-5.3 15.1-5.1 1.4-10.7.3-15.5-1.7-6.9-3.5-11.4-10.1-16.1-16-3.5-5.2-8.1-10.6-7.7-17.4.1-6 4.1-11.4 9.3-13.9z" class="st0"/>
  <path id="path5219" d="M383.9 491.3c.5-.3 1.8-1 2.3-1.3 8.2-.1 16.3 1.3 24.3 2.7-6.1 9.6-16 15.8-26.1 20.4-5.6 2.9-10.2-3.1-14.9-5.7 9.5-4.1 19.7-7.6 27.4-15-4.4-.4-8.6-.7-13-1.1z" class="st0"/>
  <path id="path5221" d="M249 492.8c9.7 3.2 18.8 8.5 28.8 10.6 11.7 2.5 23.6 3.7 35.4 5.3 14.2 1.8 28.9 4.6 42.9 0 .2-1.1.4-3 .6-4.1 5.1 4 10.1 8 15.2 12-6.1 3.4-13.2 4.1-20 5-13.4 1.5-27.2 1-40.3-2.8.4 1.4.6 2.8 1 4.3-14.6-2.2-28.2-8.3-42.2-12.9-8.3-3.6-19.2-7.1-21.4-17.4z" class="st0"/>
  <path id="path5223" d="M348.7 561.4c.4 3.8 2.1 8.2.4 11.9-4.2 5.3-9.6 9.3-14.4 13.9.7-3.1 1.3-6.2 1.8-9.4-7.3.1-9.4 7.7-12.5 13.2-8.6 16.4-16.5 33.1-23.7 50.2-2.4 5.3-4.6 10.8-8.6 15-8.3 8.1-20.8 11-31.8 7.3-6.4-1.2-7.7-8.7-10.1-14 7.5 8 19.8 7 28.9 2.6 9.1-5.6 12.5-16.8 18-25.5 7.8-12.8 14.6-26.3 21.5-39.7 2.4-5.4 7.7-8.2 12.6-10.6 7.3-3.2 12.5-9.4 17.9-14.9z" class="st0"/>
  <path id="path5225" d="M131.4 577.8c-.7-3.3 2.9-4.7 4.6-6.6 3.6 4 5.3 12-1.8 13.1-1.1-2.1-2-4.3-2.8-6.5z" class="st0"/>
  <path id="path5227" d="M153.6 575.7c3.6 2 3.5 5.9 3.3 9.4-5.3-.5-5.1-5.6-3.3-9.4z" class="st0"/>
  <path id="path5229" d="M371.5 597.1c-5.1-1.2-9.1-9.3-3.6-12.6 2.4.8 6.2 1.6 6.5 4.8.6 3-1.4 5.5-2.9 7.8z" class="st0"/>
  <path id="path5231" d="M122.2 595.1c-.9-4.3.7-8.4 5.3-9.1.1 3.3.1 6.5-.2 9.7-1.1-.1-3.8-.4-5.1-.6z" class="st0"/>
  <path id="path5233" d="M347.3 595.1c0-3-1.1-6.9 2.9-7.5 2.8 2 2.3 5.2 1.8 8.1-1.2-.2-3.5-.5-4.7-.6z" class="st0"/>
  <path id="path5235" d="M147.2 602.4c4.9-2.3 11.9-2.1 14.9 3.1 4.5 6 2.9 13.9 1.4 20.6-.7 9.2-13.6 14-20 7.7-7.9-8.7-8.2-26.3 3.7-31.4z" class="st0"/>
  <path id="path5237" d="M184.3 603.5c1.2 2.7 2.8 5.2 4.2 7.7 1.1-2 2.1-4.1 3.2-6.1 3.2 17.2 2 35.2 7.5 51.9-9.3.8-18.5.4-27.8 1-6.1.2-12.5.7-18.6-1-2.2-1.7-4.1-3.9-6.1-6 11 3 23.4 2.7 32.9-4.5 7.1-4.3 10-13.4 9-21.4-1.1-3.9-3.8-7-6-10.3.9-3.6 1.5-7.4 1.7-11.3z" class="st0"/>
  <path id="path5239" d="M378.2 615.4c-2.1-4.5-.4-13.4 6.1-10.7 1.1 4.6-2.2 8.9-6.1 10.7z" class="st0"/>
  <path id="path5241" d="M345.5 609.6c4-.6 9.3-1.3 12.4 2.3 2.9 3.6 5.5 7.7 7.1 12.1 1.4 12.1-10.8 21.4-21.7 19.6-6.6-1.3-11.7-7.7-11.4-14.7 1.5-7.9 6.2-16 13.6-19.3z" class="st0"/>
  <path id="path5243" d="M396.7 616.3c1.2 0 3.3-.1 4.4-.1-1.2 10.4-2.9 20.7-5 31.1 3.4 1.2 6.9 2.3 10.6 1.8 11.3-1.1 23.1-1.2 33.8-5.5 9.2-3.6 19-6.1 26.9-12.3-10.3 17.4-31.7 22-49.9 23.8-21.4 1.5-42.9 3.8-64.3 5.5 9-6.2 18.4-12 26.9-19.1 7.5-6.7 12.5-15.9 16.6-25.2z" class="st0"/>
  <path id="path5245" d="M298.8 659.9c4.9-8.7 9.6-17.5 13-27 2.3 4.8 4.8 10.4 10.2 12.1 8 2.7 17.1 6.1 25.5 2.5 4.9-1.8 9.8-3.6 14.8-5.3 1 .4 2.9 1.2 3.9 1.6-8.6 6.5-17.8 13.4-28.5 15.6-13-.2-25.9 1.3-38.9.5z" class="st0"/>
  <path id="path5247" d="M224.1 656.4c6.9-1.2 13.3-4.5 19.7-7.4-.3 3.5-.4 7-.4 10.6-10.9 5.4-25.2 9.2-36 1.7-.2-2.1-.4-4.3-.5-6.3 5.6.9 11.4 2.5 17.2 1.4z" class="st0"/>
  <path id="path5249" d="M294.4 169.8c11.5-4.4 17.7-1.7 21.3 0 6.1 3.4 12.1 7.5 15.8 13.7 9.3 15.5 16 32.8 20 50.6 1.3 3.8 1.4 8.8 4.8 11.3 19.3 10.9 37.7 23.9 53 40.2 12.3 12 23 25.9 30.5 41.5 2.3 4.5 3 9.9 6.1 13.8 10.3 4.1 21.8 4.3 31.9 9.1 7.9 3.4 14.9 8.8 20.6 15.4 4.4 5.2 10.2 9.6 12.1 16.4 1.8 13.2-2.4 26.8-10.3 37.1-17.2 22.4-41.3 37.6-65.3 50.9-4.5 6.9-7.7 14.3-12 21.1 9.3 4.4 18.7 8.7 26.5 15.7-9.3-4.6-18.3-9.7-28.5-11.9-9.5 10.8-21.1 19.4-34 25.3 4.1 6.3 9.3 11.9 12.5 18.7 3.3 6.7 5.1 14 6.9 21.2-9.5-11.7-14.5-27.1-26.4-36.7-2.7-.8-5.3.4-7.9.8-8.8 2.2-17.9 3.2-27 4.1 3.4 12.8 8.2 25.3 10.2 38.5 12.5-2 27.2-1.7 36.6 8.6 10.1 9.4 7.4 24.5 7.2 36.8 14.5-4.5 27.1-15.2 33.5-29.5 4.9-11 7.8-23.6 16.6-32.3 8.5-8.8 23.4-10.3 32.7-2 6.9 6.6 9.9 16.6 9.7 26.1-.2 10.4.2 21.1-3.2 31.1-3.7 11-8.4 22-15.5 31.2-5.9 7.7-12.3 15.9-21.7 19.5-23.1 9.3-48.3 7.2-72.5 10-14.9 1.8-29.5-2.3-44.2-2-12.5.4-24.9.8-37.3.6-5.7-.4-10.6 3.3-16 4.5-10.9 2.5-21.7-.8-31.9-4.7-11 4.9-23.2 10.4-35.4 6-5.8-1.8-9.2-8.9-15.7-8.3-15.4-.5-30.9 1.9-46.2-.8-6.3-.6-9.7-6.8-13.4-11.3-6.9-10.1-14.8-19.7-19-31.3-5.2-13-11.7-27.2-7.3-41.5 2.3-9.5 7.8-21.1 18.5-22.3 10.4.5 20.1 5.8 28.9 11.3 10-20.2 15.5-42.4 24.7-62.8 4.3-9.5 8.2-19.2 11.6-29.1-4.9-4.7-9.8-9.5-13.1-15.6-20.2-34.2-32.5-74-32-114.1-.4-2.7.9-6.3-2-7.8-10.8-6.2-23.5-8-35.8-8.2-14.9.2-30.2-.1-44.3 5.3v-1.2c15.4-7.7 32.8-8.9 49.6-8.6 11.3.2 22 4.2 32.6 7.7 2.3-10.8 4.7-21.6 9.3-31.7 2.5-5.5 6.4-10.1 8.9-15.7-2.8-6.1-8.8-9.9-13.4-14.7-12.7-12.7-28.6-21.5-44.3-29.6-4.9-2.5-10.2-4-15.3-5.9 18.3 2.1 35.7 10.3 50.9 20.8 9.6 6.6 16.5 16.5 25.5 23.8 15.5-19.8 34.5-37.6 58-46.5 5.5-1.6 6.9-7.8 9.5-12.4 10.8-23 30.5-42.1 54.4-50.2zm1.9 4.8c-23.5 9.6-41.8 29.9-51.7 53.6 1.8.2 5.4.7 7.3 1-8.3 5.9-19 5.8-27.7 11.2-18.8 11-35.4 26.6-46.5 45.7 7.4 9.9 11.8 21.3 16.9 32.5.6 3.6 1 7.7-1.8 10.5-2.1-13.5-9.7-25.2-16.8-36.5-.6 0-1.7-.1-2.2-.1-8.3 12.7-11.3 28.2-13.8 43.1 5.3 7.4 15.2 10.9 18.3 20.3-5.5-4.8-11.2-9.6-18.3-11.7-1.6 33.4 9 65.6 21.4 95.9 4.9 12.3 13.5 23 17.5 35.5-9.7 28-18.6 56.3-29.3 84-1.6 3.9-2.8 8.1-3.5 12.3 8.4 9 14 20.1 18.1 31.6-.2 3.9-.8 7.7-1.6 11.4-6.1-8.2-8.2-18.8-13.7-27.4-5.1-10.1-14.2-16.9-22.6-23.9-4.5-3.4-10.9-5.2-15.8-2.1-6.9 5.4-10.1 14.3-10.4 23 2.7-.3 5.4-.4 8.2-.7 1.4 3.2 4 6.5 2.7 10.2-1.4 4.6-7.2 3.6-10.8 5.3 4.3 10.9 7.2 22.3 13.4 32.2 4 6.8 9 12.9 13.1 19.7 2 2 3.8 4.3 6.1 6 6.1 1.7 12.5 1.2 18.6 1 9.3-.6 18.5-.2 27.8-1-5.4-16.7-4.3-34.7-7.5-51.9-2.8-16.9-3.3-34.2-7.5-50.9-1.2-4.2-1.6-8.5-1.6-13 11.9 21.2 13.9 45.8 17.2 69.5 1.8 14.8 1 30.3 7 44.2.2 2 .4 4.2.5 6.3 10.9 7.5 25.1 3.7 36-1.7 0-3.6.2-7.1.4-10.6.2-13.2 3.9-25.9 5.3-38.9 2.2-19.8 4.6-39.7 4.5-59.6.6.2 2 .6 2.7.9 1.2 11.7.7 23.8.5 35.6-1.9 11.9-.4 24.1-3.1 36-1.7 8.8-3.4 17.6-3.8 26.6 2.3 5.3 3.6 12.8 10.1 14 10.9 3.7 23.5.8 31.8-7.3 4-4.3 6.2-9.8 8.6-15 7.2-17.1 15-33.8 23.7-50.2 3-5.4 5.2-13.1 12.5-13.2-.4 3.2-1.1 6.3-1.8 9.4 4.8-4.6 10.2-8.6 14.4-13.9 1.8-3.7.1-8.1-.4-11.9-2.8-11.1-5.3-22.3-8.1-33.5-9.6-.3-18.8-2.8-28-4.9-.4-1.4-.6-2.8-1-4.3 13.1 3.8 26.9 4.4 40.3 2.8 6.9-.9 13.9-1.6 20-5-5.1-4-10.1-8-15.2-12-2.3-1.8-4.5-3.6-6.7-5.5 7.2.4 13.4 4.6 19.5 8.2 4.6 2.6 9.3 8.6 14.9 5.7 10.1-4.5 20-10.8 26.1-20.4-8-1.3-16.1-2.8-24.3-2.7-6.1-.7-12.5-.5-18.6-2 1.6-1.2 3.1-2.8 5.2-2.3 13.9 0 27.5 2.5 41.3 2.4 6.5-9.3 12.4-19.1 16.3-29.8 3.2-7.9 4.8-16.4 8.6-23.9 3-6 4.8-12.4 6.7-18.8 2.7 8.6-.4 17.4-2.2 25.7-2.3 6-3.8 12.3-4.8 18.7 18.7-8.7 35.4-21.6 49.5-36.9 8.4-8.9 14.2-20.5 14.7-32.9 1.1-7.9-4.5-14.4-9.3-19.7-11.8-13.4-28.9-21.7-46.4-23.1 1.8 11.6 4 23.6 2.8 35.6-.4 4.2-2.8 7.7-5.1 10.9.4-26.2-3.8-53.3-18-75.7-10.8-15.9-24.3-29.5-38.4-42.4-14.3-11-28.7-23.1-45.7-29.4-8.5-3.4-18.2-5.3-24.6-12.5 9.1 2.2 18.2 4.1 27.4 6-3.3-15.4-7.3-31-15-44.7-3.8-7.3-7.7-15.2-15-19.2-5.7-3.6-13.1-4.4-19.3-1.4zm163.3 377.6c-9.4 4.9-14.4 15.4-17.5 25.2-4.2 12.2-10.9 23.7-21.3 31.2-6 3.9-12.9 5.9-19.7 7.7-1.1 0-3.2.1-4.4.1-4.1 9.3-9.1 18.4-16.6 25.1-8.5 7.1-17.9 12.9-26.9 19.1 21.4-1.7 42.8-4 64.3-5.5 18.2-1.8 39.6-6.3 49.9-23.8 14.9-17.9 22.1-42.6 19.1-65.9-1-12.9-16.8-18.9-26.9-13.2zm-118.5 34.5c-3.6 3.8-9.7 4.4-12.2 9.3-6.6 11.8-11.8 24.4-17.1 36.8-3.4 9.4-8.1 18.2-13 27 13 .8 25.9-.6 38.9-.5 10.7-2.1 19.8-9.1 28.5-15.6 11.5-7.8 20-19.9 24-33.5 2.4-10 2.9-21.6-3.2-30.3-3.7-5.3-8.4-11.7-15.7-10.4-12.7-1.5-21.2 9.9-30.2 17.2zm-218.9 8.4c1.2.2 3.9.4 5.2.6.3-3.2.3-6.4.2-9.7-4.7.8-6.3 4.9-5.4 9.1z" class="st1"/>
  <path id="path5251" d="M212.7 298.1c3.7-2.4 10.8-5 19.3-3.7 10 2.2 20.7 6 26.6 15.2 6.2 8 8.4 18.4 7.3 28.6-1 1.7-2.9 2.7-5.6 1.3-3.6-11.6-10.6-23.5-19.5-31.6-8-6.7-24-2.3-28.2-3.9-2.5-1-2.9-4.1.1-5.9z" class="st1"/>
  <path id="path5253" d="M294.4 350.7c2.7-2.3 6-.6 8.8.4 5.6 2.1 10 7 12.4 12.5 1.5 4.5.7 11.2-4.4 12.8-8.6-2.1-17.1-8.5-19.9-17.4-1.4-2.9.2-6.7 3.1-8.3zm1.6 4.6c-.6 9 7.3 14.2 13.9 18.3 2.9-2.7 3.2-7 1.2-10.2-3-5.3-8.7-11.2-15.1-8.1z" class="st1"/>
  <path id="path5255" d="M267.5 358c1 0 2.9-.1 3.9-.2-.8 7.9-.2 17.7 8.1 21.1 6.9 3.8 14-.1 18.9-5.3-2.8 7.8-6.1 17.4-.4 24.8 6.9 7.5 17.7 2.7 26.3 3.6-1.2 6.3-9.2 3.2-12.4 7.4-10.7 12.5-20.8 25.9-34.2 35.6-7.3 5.3-17.2 5-25.3 1.9-6.6-3.4-12-10.4-11.6-18.3-.8-9.1 2.5-17.6 5.9-25.9 4.2-11.7 13.5-20.5 19.3-31.3.8-4.5 1-9 1.5-13.4zm-14 53.4c-2 0-3.3 1.1-3.9 2.9-3 6.8-3.8 14.7-2.4 22 2 6.4 9 7.7 14.6 7.9 8.7.5 15.7-5.9 22.1-11 2-2.3 6.1-4.1 5.5-7.7-8.1-11.3-22.5-16.7-35.9-14.1z" class="st1"/>
  <path id="path5257" d="M344.7 399.9c15.2-3.4 31.2 4.5 38.6 18.4 4.5 9.3 9.7 19.5 7.9 30.3-1.2 6.6-4.2 15.5-12.3 14.4.5-8.2 2.7-16.6-.1-24.6-3.6-11-9.3-22.5-19.8-28.2-4.7-3.6-13.5-2.7-14.3-10.3z" class="st1"/>
  <path id="path5259" d="M127.5 581c-4.5-6.4 3.6-14.3 10-12.6 5.3 2.6 4.8 9.3 5.2 14.3-4.2 5-12.5 4.6-15.2-1.7zm3.9-3.2c.8 2.2 1.7 4.4 2.8 6.5 7.1-1.1 5.3-9.1 1.8-13.1-1.7 1.9-5.3 3.3-4.6 6.6z" class="st1"/>
  <path id="path5261" d="M148.1 581.2c-1.4-4.4 2.7-7.7 5.5-10.2 3.8 2.9 7.6 7 7.5 12.2-1.7 7-11.8 3.8-13-2zm5.5-5.5c-1.8 3.8-2 9 3.3 9.4.1-3.6.2-7.5-3.3-9.4z" class="st1"/>
  <path id="path5263" d="M359.7 588.7c1.5-3.6 3.4-8.6 8.1-8.4 9.3-2.6 14.2 13.6 7 18.3-6.8 1.5-13.1-3.2-15.1-9.9zm11.8 8.4c1.4-2.3 3.5-4.8 2.8-7.8-.3-3.2-4.1-4-6.5-4.8-5.3 3.4-1.3 11.4 3.7 12.6z" class="st1"/>
  <path id="path5265" d="M344 596.9c-2.9-5.6-.7-13.5 6.4-13.4 2 3.2 8.1 6.2 5.3 10.7-2.4 4.4-7.7 4.7-11.7 2.7zm3.3-1.8c1.2.2 3.5.4 4.7.6.5-2.9 1-6.1-1.8-8.1-3.9.5-2.9 4.4-2.9 7.5z" class="st1"/>
  <path id="path5267" d="M145.4 596.8c5.7-.4 12.7-1.9 17.2 2.8 5.3 5 9.3 12.6 6.7 20.2-.2 6.9-2.4 14.2-8.6 17.6-8.1 4.1-18.5 1.6-24.7-5.1-4.5-6.5-6.2-15-4.2-22.7 2.4-5.7 7.5-10.9 13.6-12.8zm1.8 5.6c-11.9 5.2-11.7 22.8-3.7 31.4 6.4 6.3 19.3 1.5 20-7.7 1.5-6.8 3.1-14.7-1.4-20.6-2.9-5.3-10-5.5-14.9-3.1z" class="st1"/>
  <path id="path5269" d="M376.2 602.6c2.9-1.2 6.1-.6 9.2-.7 1.6 4.2 2.7 9.6-.5 13.3-2.3 3.6-8.3 3-10.4-.4-3.2-3.5-1.2-9.2 1.7-12.2zm2 12.8c3.9-1.9 7.2-6.1 6.1-10.7-6.5-2.7-8.2 6.2-6.1 10.7z" class="st1"/>
  <path id="path5271" d="M329.7 615.2c4-6.5 10.5-12.7 18.5-11.4 10.1-.8 17.1 8.5 20.6 17.1 3 7.7-2.3 15.3-6.5 21.3-5 1.8-9.9 3.6-14.8 5.3-6.9-2.2-15.1-4-19.2-10.9-3.5-6.7-2.8-15.4 1.4-21.4zm15.8-5.6c-7.5 3.3-12.1 11.4-13.6 19.3-.4 7 4.8 13.4 11.4 14.7 10.9 1.8 23.1-7.5 21.7-19.6-1.6-4.5-4.2-8.5-7.1-12.1-3-3.7-8.4-3-12.4-2.3z" class="st1"/>
  <path id="path5063-2" d="M441.4 278.8c-5.8-8.4-13.4-22.2-17.7-31.8-12.9-29-13-49.5-.5-60.8 5-4.5 13.4-8.3 20.1-9.1 8.4-1 17.6 3.8 23.9 12.5 2.5 3.5 6.4 11.3 7.6 15.1l.8 2.6 4.2-1.7c12.5-5 23.9-5.5 32.3-1.3 6.4 3.2 11.7 11.3 13.7 21 1.8 8.5.5 15.2-4.2 22.1-9.6 14.3-34.1 25.7-69.4 32.1-9.1 1.8-9 1.9-10.8-.7z" class="st0"/>
</svg>
